<svg id="Layer_2" xmlns="http://www.w3.org/2000/svg" xmlns:xlink="http://www.w3.org/1999/xlink" x="0px" y="0px" viewBox="0 0 1500 1500" xml:space="preserve" style="width: 48px; height: 48px;"><style type="text/css">
	.CTblue{fill:#124CC4;}
	.CTwhite{fill:#FFFFFF;}
</style><g><path class="CTblue" d="M1363.9,762.8c0-32.8-2.6-63-10.7-87.2H1487C1449.9,307,1141.8,18.4,764.9,12.1C353.6,5.3,17.4,332.8,14,744.1 c-3.4,410.7,328.5,744.6,738.3,744.6c367.7,0,672.6-268.8,729-620.6h-135.4C1357.1,843.2,1363.9,804.4,1363.9,762.8z"></path><path class="CTwhite" d="M923.4,829.6c-28.7,64.5-93.2,107.9-166.8,107.9c-100.7,0-182.7-82-182.7-182.7s82-182.7,182.7-182.7 c76.2,0,143.8,47.8,170.5,117h238c-1-6.4-2.2-12.7-3.5-19c-19.1-91.7-69.7-175.2-142.3-234.9c-73.8-60.7-167-94.1-262.7-94.1 c-228.1,0-413.7,185.6-413.7,413.7c0,228.1,185.6,413.7,413.7,413.7c98.1,0,193.2-34.9,267.8-98.4c72.7-61.8,122-147.1,139.1-240.6 H923.4z"></path></g></svg>