<svg width="48" height="48" viewBox="0 0 48 48" fill="none" xmlns="http://www.w3.org/2000/svg" style="width: 48px; height: 48px;"><circle cx="24" cy="24" r="24" fill="#F4F4F4"></circle><path d="M31.4028 29.9256L25.0802 24.0473C24.9733 23.9479 24.9733 23.7866 25.0802 23.6872L31.0771 18.111C31.2469 17.9532 31.5235 17.9658 31.6798 18.1352C34.8834 21.607 34.6196 26.6663 31.809 29.9052C31.7069 30.0229 31.5177 30.0325 31.4028 29.9256Z" fill="#4E5280"></path><path d="M29.9249 30.8634C30.0507 30.9901 30.0132 31.2045 29.8521 31.2801L24.1078 33.9759C24.0395 34.008 23.9606 34.008 23.8923 33.9759L18.1479 31.28C17.9868 31.2044 17.9494 30.9901 18.0751 30.8634L23.8188 25.0754C23.9186 24.9749 24.0802 24.9748 24.1799 25.0754L29.9249 30.8634Z" fill="#4E5280"></path><path d="M29.8375 16.224C30.0107 16.3 30.0555 16.5372 29.9228 16.6771L19.2253 27.9584C19.123 28.0663 18.9549 27.946 19.0113 27.8053L24.4763 14.1691C24.5327 14.0285 24.6857 13.9628 24.8193 14.0214L29.8375 16.224Z" fill="#4E5280"></path><path d="M21.5518 16.0801C21.7556 15.8722 22.0896 16.104 21.9776 16.3754L16.4229 29.836C16.3446 30.0258 16.0961 30.0581 15.9735 29.8949C14.6999 28.1997 14.0081 26.0634 14 23.8996C13.9997 23.8277 14.0282 23.7587 14.0778 23.708L21.5518 16.0801Z" fill="#4E5280"></path></svg>